<svg width="17" height="18" viewBox="0 0 17 18" fill="none" xmlns="http://www.w3.org/2000/svg">
<path d="M16.4276 16.2033L14.0943 13.8033C14.9831 12.7367 15.5387 11.5367 15.7609 10.2033C15.9831 8.87 15.872 7.55889 15.4276 6.27C14.9831 4.98111 14.2498 3.87 13.2276 2.93667C12.2054 2.00333 11.0276 1.39222 9.69425 1.10333C8.36092 0.814444 7.0387 0.847776 5.72759 1.20333C4.41648 1.55889 3.27203 2.22555 2.29425 3.20333C1.31648 4.18111 0.649808 5.32555 0.294253 6.63667C-0.0613027 7.94778 -0.094636 9.27 0.194253 10.6033C0.483142 11.9367 1.09425 13.1144 2.02759 14.1367C2.96092 15.1589 4.07203 15.8922 5.36092 16.3367C6.64981 16.7811 7.96092 16.8922 9.29425 16.67C10.6276 16.4478 11.8276 15.8922 12.8943 15.0033L15.2943 17.3367C15.4276 17.5144 15.6165 17.6033 15.8609 17.6033C16.1054 17.6033 16.3054 17.5256 16.4609 17.37C16.6165 17.2144 16.6943 17.0144 16.6943 16.77C16.6943 16.5256 16.6054 16.3367 16.4276 16.2033ZM1.69425 8.87C1.69425 7.71444 1.97203 6.65889 2.52759 5.70333C3.08314 4.74778 3.8387 3.99222 4.79425 3.43667C5.74981 2.88111 6.79425 2.60333 7.92759 2.60333C9.06092 2.60333 10.1054 2.88111 11.0609 3.43667C12.0165 3.99222 12.7831 4.74778 13.3609 5.70333C13.9387 6.65889 14.2276 7.70333 14.2276 8.83667C14.2276 9.97 13.9387 11.0144 13.3609 11.97C12.7831 12.9256 12.0165 13.6811 11.0609 14.2367C10.1054 14.7922 9.06092 15.07 7.92759 15.07C6.79425 15.07 5.74981 14.7922 4.79425 14.2367C3.8387 13.6811 3.08314 12.9256 2.52759 11.97C1.97203 11.0144 1.69425 9.98111 1.69425 8.87Z" fill="white"/>
</svg>
