<svg width="271" height="338" viewBox="0 0 271 338" fill="none" xmlns="http://www.w3.org/2000/svg">
<path opacity="0.3" d="M1.49998 135.5C1.49998 134.66 1.50771 133.821 1.52311 132.984L0.0233652 132.957C0.0545459 131.263 0.116812 129.577 0.209617 127.898L1.70733 127.981C1.79998 126.306 1.9234 124.639 2.07703 122.98L0.583422 122.842C0.739895 121.153 0.927367 119.473 1.14526 117.802L2.63266 117.996C2.84939 116.335 3.09656 114.683 3.37357 113.041L1.89448 112.792C2.17615 111.122 2.48835 109.463 2.83049 107.815L4.29918 108.12C4.63984 106.479 5.01051 104.849 5.41059 103.231L3.95443 102.871C4.361 101.227 4.7976 99.5939 5.26362 97.9736L6.70518 98.3882C7.16788 96.7795 7.65991 95.1832 8.18065 93.5999L6.75574 93.1312C7.28436 91.524 7.84224 89.9301 8.42874 88.35L9.83499 88.872C10.4174 87.3029 11.0285 85.7476 11.6674 84.2068L10.2818 83.6322C10.9301 82.0689 11.6068 80.5203 12.3114 78.9871L13.6743 79.6134C14.3728 78.0933 15.0989 76.5886 15.8519 75.0999L14.5134 74.4228C15.2767 72.9138 16.0674 71.4211 16.8848 69.9452L18.197 70.6719C19.0071 69.2092 19.8439 67.7631 20.7066 66.3345L19.4225 65.5591C20.2967 64.1114 21.1972 62.6813 22.1233 61.2696L23.3775 62.0924C24.2946 60.6945 25.2372 59.3147 26.2046 57.9538L24.982 57.0847C25.9612 55.7071 26.9656 54.3485 27.9944 53.0098L29.1838 53.9238C30.2021 52.5985 31.2447 51.2929 32.3109 50.0075L31.1564 49.0498C32.2353 47.7491 33.3381 46.4688 34.464 45.2097L35.5821 46.2096C36.6961 44.964 37.833 43.7393 38.9921 42.5362L37.9119 41.4954C39.0841 40.2789 40.2788 39.0842 41.4954 37.912L42.5362 38.9922C43.7392 37.833 44.9639 36.6961 46.2096 35.5822L45.2097 34.4641C46.4688 33.3381 47.749 32.2353 49.0498 31.1564L50.0074 32.311C51.2928 31.2448 52.5985 30.2022 53.9237 29.1838L53.0097 27.9944C54.3485 26.9656 55.7071 25.9613 57.0847 24.982L57.9538 26.2046C59.3147 25.2373 60.6944 24.2947 62.0924 23.3776L61.2696 22.1234C62.6813 21.1972 64.1113 20.2967 65.5591 19.4225L66.3344 20.7066C67.7631 19.8439 69.2091 19.0072 70.6719 18.197L69.9451 16.8848C71.421 16.0674 72.9138 15.2767 74.4228 14.5135L75.0998 15.852C76.5886 15.0989 78.0933 14.3729 79.6133 13.6744L78.987 12.3114C80.5202 11.6069 82.0688 10.9302 83.6322 10.2819L84.2068 11.6674C85.7475 11.0285 87.3028 10.4175 88.872 9.83505L88.35 8.4288C89.93 7.8423 91.524 7.28442 93.1312 6.7558L93.5998 8.18071C95.1831 7.65997 96.7794 7.16794 98.3881 6.70524L97.9735 5.26368C99.5938 4.79766 101.227 4.36106 102.871 3.95449L103.231 5.41065C104.849 5.01057 106.479 4.6399 108.12 4.29923L107.815 2.83055C109.463 2.48841 111.122 2.17621 112.792 1.89453L113.041 3.37362C114.683 3.09661 116.335 2.84945 117.996 2.63272L117.802 1.14532C119.473 0.92742 121.153 0.739947 122.842 0.583474L122.98 2.07708C124.639 1.92345 126.306 1.80003 127.981 1.70738L127.898 0.209668C129.576 0.116862 131.263 0.0545951 132.957 0.0234136L132.984 1.52316C133.821 1.50776 134.66 1.50002 135.5 1.50002C136.34 1.50002 137.179 1.50776 138.016 1.52316L138.043 0.0234126C139.737 0.0545933 141.424 0.11686 143.102 0.209665L143.019 1.70738C144.694 1.80003 146.361 1.92344 148.02 2.07707L148.158 0.58347C149.847 0.739943 151.527 0.927415 153.198 1.14531L153.004 2.63271C154.665 2.84944 156.317 3.0966 157.959 3.37362L158.208 1.89453C159.878 2.1762 161.537 2.4884 163.185 2.83054L162.88 4.29922C164.521 4.63989 166.151 5.01056 167.769 5.41064L168.129 3.95447C169.773 4.36104 171.406 4.79765 173.026 5.26367L172.612 6.70523C174.221 7.16793 175.817 7.65996 177.4 8.1807L177.869 6.75579C179.476 7.28441 181.07 7.84228 182.65 8.42879L182.128 9.83503C183.697 10.4175 185.252 11.0285 186.793 11.6674L187.368 10.2818C188.931 10.9302 190.48 11.6069 192.013 12.3114L191.387 13.6744C192.907 14.3728 194.411 15.0989 195.9 15.852L196.577 14.5135C198.086 15.2767 199.579 16.0674 201.055 16.8848L200.328 18.197C201.791 19.0072 203.237 19.8439 204.666 20.7066L205.441 19.4225C206.889 20.2967 208.319 21.1972 209.73 22.1234L208.908 23.3776C210.306 24.2947 211.685 25.2373 213.046 26.2046L213.915 24.982C215.293 25.9612 216.651 26.9656 217.99 27.9944L217.076 29.1838C218.402 30.2022 219.707 31.2448 220.993 32.311L221.95 31.1564C223.251 32.2353 224.531 33.3381 225.79 34.464L224.79 35.5822C226.036 36.6961 227.261 37.833 228.464 38.9922L229.505 37.912C230.721 39.0841 231.916 40.2789 233.088 41.4954L232.008 42.5362C233.167 43.7393 234.304 44.964 235.418 46.2096L236.536 45.2097C237.662 46.4688 238.765 47.7491 239.844 49.0498L238.689 50.0075C239.755 51.2929 240.798 52.5985 241.816 53.9237L243.006 53.0098C244.034 54.3485 245.039 55.7071 246.018 57.0847L244.795 57.9538C245.763 59.3147 246.705 60.6945 247.622 62.0924L248.877 61.2696C249.803 62.6813 250.703 64.1114 251.578 65.5591L250.293 66.3344C251.156 67.7631 251.993 69.2091 252.803 70.6719L254.115 69.9452C254.933 71.4211 255.723 72.9138 256.487 74.4228L255.148 75.0999C255.901 76.5886 256.627 78.0933 257.326 79.6133L258.689 78.9871C259.393 80.5202 260.07 82.0689 260.718 83.6322L259.333 84.2068C259.972 85.7476 260.583 87.3028 261.165 88.872L262.571 88.35C263.158 89.93 263.716 91.524 264.244 93.1312L262.819 93.5999C263.34 95.1831 263.832 96.7794 264.295 98.3882L265.736 97.9735C266.202 99.5938 266.639 101.227 267.046 102.871L265.589 103.231C265.989 104.849 266.36 106.479 266.701 108.12L268.17 107.815C268.512 109.463 268.824 111.122 269.106 112.792L267.626 113.041C267.903 114.683 268.151 116.335 268.367 117.996L269.855 117.802C270.073 119.473 270.26 121.153 270.417 122.842L268.923 122.98C269.077 124.639 269.2 126.306 269.293 127.981L270.79 127.898C270.883 129.576 270.945 131.263 270.977 132.957L269.477 132.984C269.492 133.821 269.5 134.66 269.5 135.5L269.5 138.031L271 138.031L271 143.094L269.5 143.094L269.5 148.156L271 148.156L271 153.219L269.5 153.219L269.5 158.281L271 158.281L271 163.344L269.5 163.344L269.5 168.406L271 168.406L271 173.469L269.5 173.469L269.5 178.531L271 178.531L271 183.594L269.5 183.594L269.5 188.656L271 188.656L271 193.719L269.5 193.719L269.5 198.781L271 198.781L271 203.844L269.5 203.844L269.5 208.906L271 208.906L271 213.969L269.5 213.969L269.5 219.031L271 219.031L271 224.094L269.5 224.094L269.5 229.156L271 229.156L271 234.219L269.5 234.219L269.5 239.281L271 239.281L271 244.344L269.5 244.344L269.5 249.406L271 249.406L271 254.469L269.5 254.469L269.5 259.531L271 259.531L271 264.594L269.5 264.594L269.5 269.656L271 269.656L271 274.719L269.5 274.719L269.5 279.781L271 279.781L271 284.844L269.5 284.844L269.5 289.906L271 289.906L271 294.969L269.5 294.969L269.5 300.031L271 300.031L271 305.094L269.5 305.094L269.5 310.156L271 310.156L271 315.219L269.5 315.219L269.5 320.281L271 320.281L271 325.344L269.5 325.344L269.5 330.406L271 330.406L271 335.469L269.5 335.469L269.5 336.5L268.491 336.5L268.491 338L263.472 338L263.472 336.5L258.454 336.5L258.454 338L253.435 338L253.435 336.5L248.417 336.5L248.417 338L243.398 338L243.398 336.5L238.38 336.5L238.38 338L233.361 338L233.361 336.5L228.343 336.5L228.343 338L223.324 338L223.324 336.5L218.306 336.5L218.306 338L213.287 338L213.287 336.5L208.268 336.5L208.268 338L203.25 338L203.25 336.5L198.231 336.5L198.231 338L193.213 338L193.213 336.5L188.194 336.5L188.194 338L183.176 338L183.176 336.5L178.157 336.5L178.157 338L173.139 338L173.139 336.5L168.12 336.5L168.12 338L163.102 338L163.102 336.5L158.083 336.5L158.083 338L153.065 338L153.065 336.5L148.046 336.5L148.046 338L143.028 338L143.028 336.5L138.009 336.5L138.009 338L132.991 338L132.991 336.5L127.972 336.5L127.972 338L122.954 338L122.954 336.5L117.935 336.5L117.935 338L112.917 338L112.917 336.5L107.898 336.5L107.898 338L102.88 338L102.88 336.5L97.8611 336.5L97.8611 338L92.8425 338L92.8425 336.5L87.824 336.5L87.824 338L82.8055 338L82.8055 336.5L77.787 336.5L77.787 338L72.7685 338L72.7685 336.5L67.7499 336.5L67.7499 338L62.7314 338L62.7314 336.5L57.7129 336.5L57.7129 338L52.6944 338L52.6944 336.5L47.6758 336.5L47.6758 338L42.6573 338L42.6573 336.5L37.6388 336.5L37.6388 338L32.6203 338L32.6203 336.5L27.6017 336.5L27.6017 338L22.5832 338L22.5832 336.5L17.5647 336.5L17.5647 338L12.5462 338L12.5462 336.5L7.52764 336.5L7.52764 338L2.50913 338L2.50913 336.5L1.49994 336.5L1.49994 335.469L-5.86552e-05 335.469L-5.77701e-05 330.406L1.49994 330.406L1.49994 325.344L-5.68849e-05 325.344L-5.59997e-05 320.281L1.49994 320.281L1.49994 315.219L-5.51146e-05 315.219L-5.42294e-05 310.156L1.49995 310.156L1.49995 305.094L-5.33443e-05 305.094L-5.24591e-05 300.031L1.49995 300.031L1.49995 294.969L-5.1574e-05 294.969L-5.06888e-05 289.906L1.49995 289.906L1.49995 284.844L-4.98037e-05 284.844L-4.89185e-05 279.781L1.49995 279.781L1.49995 274.719L-4.80334e-05 274.719L-4.71482e-05 269.656L1.49995 269.656L1.49995 264.594L-4.6263e-05 264.594L-4.53779e-05 259.531L1.49995 259.531L1.49996 254.469L-4.44927e-05 254.469L-4.36076e-05 249.406L1.49996 249.406L1.49996 244.344L-4.27224e-05 244.344L-4.18373e-05 239.281L1.49996 239.281L1.49996 234.219L-4.09521e-05 234.219L-4.00669e-05 229.156L1.49996 229.156L1.49996 224.094L-3.91818e-05 224.094L-3.82966e-05 219.031L1.49996 219.031L1.49996 213.969L-3.74115e-05 213.969L-3.65263e-05 208.906L1.49996 208.906L1.49996 203.844L-3.56412e-05 203.844L-3.4756e-05 198.781L1.49997 198.781L1.49997 193.719L-3.38709e-05 193.719L-3.29857e-05 188.656L1.49997 188.656L1.49997 183.594L-3.21005e-05 183.594L-3.12154e-05 178.531L1.49997 178.531L1.49997 173.469L-3.03302e-05 173.469L-2.94451e-05 168.406L1.49997 168.406L1.49997 163.344L-2.85599e-05 163.344L-2.76748e-05 158.281L1.49997 158.281L1.49997 153.219L-2.67896e-05 153.219L-2.59045e-05 148.156L1.49997 148.156L1.49997 143.094L-2.50193e-05 143.094L-2.41341e-05 138.031L1.49998 138.031L1.49998 135.5Z" stroke="white" stroke-width="3" stroke-dasharray="5 5"/>
</svg>
